<svg width="49" height="30" viewBox="0 0 49 30" fill="none" xmlns="http://www.w3.org/2000/svg">
<path d="M2.56498 0.246934C2.32061 0.243478 2.07799 0.288625 1.85122 0.379751C1.62445 0.470876 1.41805 0.606163 1.24402 0.77775C1.06999 0.949336 0.931799 1.1538 0.837476 1.37926C0.743153 1.60472 0.69458 1.84667 0.69458 2.09107C0.69458 2.33546 0.743153 2.57742 0.837476 2.80288C0.931799 3.02834 1.06999 3.2328 1.24402 3.40439C1.41805 3.57597 1.62445 3.71126 1.85122 3.80239C2.07799 3.89351 2.32061 3.93866 2.56498 3.9352H46.8242C47.0686 3.93866 47.3112 3.89351 47.5379 3.80239C47.7647 3.71126 47.9711 3.57597 48.1451 3.40439C48.3192 3.2328 48.4574 3.02834 48.5517 2.80288C48.646 2.57742 48.6946 2.33546 48.6946 2.09107C48.6946 1.84667 48.646 1.60472 48.5517 1.37926C48.4574 1.1538 48.3192 0.949336 48.1451 0.77775C47.9711 0.606163 47.7647 0.470876 47.5379 0.379751C47.3112 0.288625 47.0686 0.243478 46.8242 0.246934H2.56498ZM2.56498 13.1559C2.32061 13.1524 2.07799 13.1976 1.85122 13.2887C1.62445 13.3798 1.41805 13.5151 1.24402 13.6867C1.06999 13.8583 0.931799 14.0627 0.837476 14.2882C0.743153 14.5137 0.69458 14.7556 0.69458 15C0.69458 15.2444 0.743153 15.4864 0.837476 15.7118C0.931799 15.9373 1.06999 16.1417 1.24402 16.3133C1.41805 16.4849 1.62445 16.6202 1.85122 16.7113C2.07799 16.8024 2.32061 16.8476 2.56498 16.8441H46.8242C47.0686 16.8476 47.3112 16.8024 47.5379 16.7113C47.7647 16.6202 47.9711 16.4849 48.1451 16.3133C48.3192 16.1417 48.4574 15.9373 48.5517 15.7118C48.646 15.4864 48.6946 15.2444 48.6946 15C48.6946 14.7556 48.646 14.5137 48.5517 14.2882C48.4574 14.0627 48.3192 13.8583 48.1451 13.6867C47.9711 13.5151 47.7647 13.3798 47.5379 13.2887C47.3112 13.1976 47.0686 13.1524 46.8242 13.1559H2.56498ZM2.56498 26.0648C2.32061 26.0613 2.07799 26.1065 1.85122 26.1976C1.62445 26.2887 1.41805 26.424 1.24402 26.5956C1.06999 26.7672 0.931799 26.9717 0.837476 27.1971C0.743153 27.4226 0.69458 27.6645 0.69458 27.9089C0.69458 28.1533 0.743153 28.3953 0.837476 28.6207C0.931799 28.8462 1.06999 29.0507 1.24402 29.2223C1.41805 29.3938 1.62445 29.5291 1.85122 29.6203C2.07799 29.7114 2.32061 29.7565 2.56498 29.7531H46.8242C47.0686 29.7565 47.3112 29.7114 47.5379 29.6203C47.7647 29.5291 47.9711 29.3938 48.1451 29.2223C48.3192 29.0507 48.4574 28.8462 48.5517 28.6207C48.646 28.3953 48.6946 28.1533 48.6946 27.9089C48.6946 27.6645 48.646 27.4226 48.5517 27.1971C48.4574 26.9717 48.3192 26.7672 48.1451 26.5956C47.9711 26.424 47.7647 26.2887 47.5379 26.1976C47.3112 26.1065 47.0686 26.0613 46.8242 26.0648H2.56498Z" fill="#737D8F"/>
</svg>
